<mxfile host="app.diagrams.net" modified="2023-09-20T08:35:55.215Z" agent="Mozilla/5.0 (Windows NT 10.0; Win64; x64) AppleWebKit/537.36 (KHTML, like Gecko) Chrome/116.0.0.0 Safari/537.36" etag="wpsyIghML7UPxvfDzNVC" version="21.7.5" type="device">
  <diagram name="Page-1" id="ZGZ_1pwbjck-SX4nB9IG">
    <mxGraphModel dx="2359" dy="1972" grid="1" gridSize="10" guides="1" tooltips="1" connect="1" arrows="1" fold="1" page="1" pageScale="1" pageWidth="850" pageHeight="1100" math="0" shadow="0">
      <root>
        <mxCell id="0" />
        <mxCell id="1" parent="0" />
        <mxCell id="bgM3Sf7A6DJIX1IaE0GI-10" value="" style="group" vertex="1" connectable="0" parent="1">
          <mxGeometry x="-830" y="30" width="650" height="145" as="geometry" />
        </mxCell>
        <mxCell id="bgM3Sf7A6DJIX1IaE0GI-4" value="" style="shape=image;verticalLabelPosition=bottom;labelBackgroundColor=default;verticalAlign=top;aspect=fixed;imageAspect=0;image=https://2022.allthingsopen.org/wp-content/uploads/2022/10/Kaleido.jpg;" vertex="1" parent="bgM3Sf7A6DJIX1IaE0GI-10">
          <mxGeometry x="35.59947368421051" y="10" width="72.98473684210526" height="41.05263157894737" as="geometry" />
        </mxCell>
        <mxCell id="bgM3Sf7A6DJIX1IaE0GI-7" value="" style="shape=image;verticalLabelPosition=bottom;labelBackgroundColor=default;verticalAlign=top;aspect=fixed;imageAspect=0;image=https://www.hyperledger.org/hubfs/Imported_Blog_Media/Hyperledger_Fabric_Logo_Color-1-1024x286.png;" vertex="1" parent="bgM3Sf7A6DJIX1IaE0GI-10">
          <mxGeometry x="35.09315789473682" y="90" width="73.49105263157895" height="20.526315789473685" as="geometry" />
        </mxCell>
        <mxCell id="bgM3Sf7A6DJIX1IaE0GI-9" value="" style="rounded=0;whiteSpace=wrap;html=1;fillColor=none;" vertex="1" parent="bgM3Sf7A6DJIX1IaE0GI-10">
          <mxGeometry width="143.68421052631578" height="145" as="geometry" />
        </mxCell>
        <mxCell id="bgM3Sf7A6DJIX1IaE0GI-13" value="chaincode-js" style="whiteSpace=wrap;html=1;fillColor=none;rounded=0;" vertex="1" parent="bgM3Sf7A6DJIX1IaE0GI-10">
          <mxGeometry x="184.73684210526315" y="42.5" width="82.10526315789474" height="60" as="geometry" />
        </mxCell>
        <mxCell id="bgM3Sf7A6DJIX1IaE0GI-14" value="" style="edgeStyle=orthogonalEdgeStyle;rounded=0;orthogonalLoop=1;jettySize=auto;html=1;" edge="1" parent="bgM3Sf7A6DJIX1IaE0GI-10" source="bgM3Sf7A6DJIX1IaE0GI-9" target="bgM3Sf7A6DJIX1IaE0GI-13">
          <mxGeometry relative="1" as="geometry" />
        </mxCell>
        <mxCell id="bgM3Sf7A6DJIX1IaE0GI-24" style="edgeStyle=orthogonalEdgeStyle;rounded=0;orthogonalLoop=1;jettySize=auto;html=1;exitX=1;exitY=0.5;exitDx=0;exitDy=0;" edge="1" parent="1" source="bgM3Sf7A6DJIX1IaE0GI-15" target="bgM3Sf7A6DJIX1IaE0GI-23">
          <mxGeometry relative="1" as="geometry" />
        </mxCell>
        <mxCell id="bgM3Sf7A6DJIX1IaE0GI-15" value="REST API Gateway" style="whiteSpace=wrap;html=1;fillColor=none;rounded=0;" vertex="1" parent="1">
          <mxGeometry x="-480" y="72.5" width="120" height="60" as="geometry" />
        </mxCell>
        <mxCell id="bgM3Sf7A6DJIX1IaE0GI-16" value="" style="edgeStyle=orthogonalEdgeStyle;rounded=0;orthogonalLoop=1;jettySize=auto;html=1;" edge="1" parent="1" source="bgM3Sf7A6DJIX1IaE0GI-13" target="bgM3Sf7A6DJIX1IaE0GI-15">
          <mxGeometry relative="1" as="geometry" />
        </mxCell>
        <mxCell id="bgM3Sf7A6DJIX1IaE0GI-26" style="edgeStyle=orthogonalEdgeStyle;rounded=0;orthogonalLoop=1;jettySize=auto;html=1;exitX=1;exitY=0.5;exitDx=0;exitDy=0;" edge="1" parent="1" source="bgM3Sf7A6DJIX1IaE0GI-17" target="bgM3Sf7A6DJIX1IaE0GI-23">
          <mxGeometry relative="1" as="geometry" />
        </mxCell>
        <mxCell id="bgM3Sf7A6DJIX1IaE0GI-17" value="CERTIFICATE AUTHORITIES" style="whiteSpace=wrap;html=1;fillColor=none;rounded=0;" vertex="1" parent="1">
          <mxGeometry x="-480" y="190" width="120" height="60" as="geometry" />
        </mxCell>
        <mxCell id="bgM3Sf7A6DJIX1IaE0GI-18" value="" style="edgeStyle=orthogonalEdgeStyle;rounded=0;orthogonalLoop=1;jettySize=auto;html=1;" edge="1" parent="1" source="bgM3Sf7A6DJIX1IaE0GI-9" target="bgM3Sf7A6DJIX1IaE0GI-17">
          <mxGeometry relative="1" as="geometry">
            <Array as="points">
              <mxPoint x="-725" y="220" />
            </Array>
          </mxGeometry>
        </mxCell>
        <mxCell id="bgM3Sf7A6DJIX1IaE0GI-21" style="edgeStyle=orthogonalEdgeStyle;rounded=0;orthogonalLoop=1;jettySize=auto;html=1;" edge="1" parent="1" source="bgM3Sf7A6DJIX1IaE0GI-19" target="bgM3Sf7A6DJIX1IaE0GI-9">
          <mxGeometry relative="1" as="geometry" />
        </mxCell>
        <mxCell id="bgM3Sf7A6DJIX1IaE0GI-22" style="edgeStyle=orthogonalEdgeStyle;rounded=0;orthogonalLoop=1;jettySize=auto;html=1;exitX=1;exitY=1;exitDx=0;exitDy=0;entryX=0.5;entryY=0;entryDx=0;entryDy=0;" edge="1" parent="1" source="bgM3Sf7A6DJIX1IaE0GI-19" target="bgM3Sf7A6DJIX1IaE0GI-13">
          <mxGeometry relative="1" as="geometry">
            <mxPoint x="-590" y="100" as="targetPoint" />
          </mxGeometry>
        </mxCell>
        <mxCell id="bgM3Sf7A6DJIX1IaE0GI-19" value="deploy smart contract" style="ellipse;whiteSpace=wrap;html=1;fillColor=none;rounded=0;" vertex="1" parent="1">
          <mxGeometry x="-798.16" y="-100" width="80" height="80" as="geometry" />
        </mxCell>
        <mxCell id="bgM3Sf7A6DJIX1IaE0GI-34" value="" style="edgeStyle=orthogonalEdgeStyle;rounded=0;orthogonalLoop=1;jettySize=auto;html=1;" edge="1" parent="1" source="bgM3Sf7A6DJIX1IaE0GI-23" target="bgM3Sf7A6DJIX1IaE0GI-33">
          <mxGeometry relative="1" as="geometry" />
        </mxCell>
        <mxCell id="bgM3Sf7A6DJIX1IaE0GI-23" value="" style="rounded=0;whiteSpace=wrap;html=1;" vertex="1" parent="1">
          <mxGeometry x="-310" y="72.5" width="190" height="177.5" as="geometry" />
        </mxCell>
        <mxCell id="bgM3Sf7A6DJIX1IaE0GI-27" value="" style="shape=image;verticalLabelPosition=bottom;labelBackgroundColor=default;verticalAlign=top;aspect=fixed;imageAspect=0;image=https://www.bairesdev.com/wp-content/uploads/2021/07/Expressjs.svg;" vertex="1" parent="1">
          <mxGeometry x="-246.83" y="92.5" width="63.66" height="40" as="geometry" />
        </mxCell>
        <mxCell id="bgM3Sf7A6DJIX1IaE0GI-28" value="" style="shape=image;verticalLabelPosition=bottom;labelBackgroundColor=default;verticalAlign=top;aspect=fixed;imageAspect=0;image=https://assets-global.website-files.com/5e19ea5aa7d3a217492e372b/624de949df5a11680ab170b9_Axios%20logo%20-%20RGB%20-%20minimum%20space.png;" vertex="1" parent="1">
          <mxGeometry x="-290" y="152.92000000000002" width="50.01" height="16.67" as="geometry" />
        </mxCell>
        <mxCell id="bgM3Sf7A6DJIX1IaE0GI-29" value="" style="shape=image;verticalLabelPosition=bottom;labelBackgroundColor=default;verticalAlign=top;aspect=fixed;imageAspect=0;image=https://w7.pngwing.com/pngs/413/267/png-transparent-jwt-io-json-web-token-hd-logo.png;" vertex="1" parent="1">
          <mxGeometry x="-210" y="141.26" width="80" height="40" as="geometry" />
        </mxCell>
        <mxCell id="bgM3Sf7A6DJIX1IaE0GI-30" value="" style="shape=image;verticalLabelPosition=bottom;labelBackgroundColor=default;verticalAlign=top;aspect=fixed;imageAspect=0;image=https://images.g2crowd.com/uploads/product/image/social_landscape/social_landscape_cee19035e959576dd35e1ad8c03f4a97/cockroachdb.png;" vertex="1" parent="1">
          <mxGeometry x="-253.1" y="200" width="76.19" height="40" as="geometry" />
        </mxCell>
        <mxCell id="bgM3Sf7A6DJIX1IaE0GI-33" value="restfull api" style="rhombus;whiteSpace=wrap;html=1;rounded=0;" vertex="1" parent="1">
          <mxGeometry x="-255" y="310" width="80" height="80" as="geometry" />
        </mxCell>
      </root>
    </mxGraphModel>
  </diagram>
</mxfile>
